<?xml version="1.0" encoding="utf-8"?>
<!-- Generator: Adobe Illustrator 18.0.0, SVG Export Plug-In . SVG Version: 6.00 Build 0)  -->
<!DOCTYPE svg PUBLIC "-//W3C//DTD SVG 1.1//EN" "http://www.w3.org/Graphics/SVG/1.1/DTD/svg11.dtd">
<svg version="1.1" id="Layer_22" xmlns="http://www.w3.org/2000/svg" xmlns:xlink="http://www.w3.org/1999/xlink" x="0px" y="0px"
	 viewBox="0 0 16 16" enable-background="new 0 0 16 16" xml:space="preserve">
<path id="XMLID_2219_" fill="#ffffff" d="M16,2c0-0.6-0.4-1-1-1h-1c-1.1,0-2,0.9-2,2v1H0v4c0,0.6,0.4,1,1,1h11v1H2v1
	c0,0.6,0.4,1,1,1h9c1.1,0,2-0.9,2-2V9V4V3h2V2z"/>
<path id="XMLID_2220_" fill="#ffffff" d="M6.5,16L6.5,16C7.3,16,8,15.3,8,14.5l0,0C8,13.7,7.3,13,6.5,13l0,0C5.7,13,5,13.7,5,14.5
	l0,0C5,15.3,5.7,16,6.5,16z"/>
<path id="XMLID_2221_" fill="#ffffff" d="M11.5,16L11.5,16c0.8,0,1.5-0.7,1.5-1.5l0,0c0-0.8-0.7-1.5-1.5-1.5l0,0
	c-0.8,0-1.5,0.7-1.5,1.5l0,0C10,15.3,10.7,16,11.5,16z"/>
</svg>
