<?xml version="1.0" encoding="utf-8"?>
<!-- Generator: Adobe Illustrator 18.0.0, SVG Export Plug-In . SVG Version: 6.00 Build 0)  -->
<!DOCTYPE svg PUBLIC "-//W3C//DTD SVG 1.1//EN" "http://www.w3.org/Graphics/SVG/1.1/DTD/svg11.dtd">
<svg version="1.1" id="レイヤー_1" xmlns="http://www.w3.org/2000/svg" xmlns:xlink="http://www.w3.org/1999/xlink" x="0px"
	 y="0px" viewBox="0 0 400 123.8" enable-background="new 0 0 400 123.8" xml:space="preserve">
<g>
	<polygon fill="#221815" points="0,86.9 0,0 19.1,0 19.1,32.8 19.3,32.8 49.4,0 74.3,0 41.2,34.8 77.1,86.9 54.8,86.9 28.6,48 
		19.1,58.1 19.1,86.9 	"/>
	<polygon fill="#221815" points="313,0 333.5,0 356.5,51.1 356.8,51.1 379.5,0 400,0 400,86.9 380.9,86.9 380.9,34.7 380.7,34.7 
		364.4,75.2 348.9,75.2 332.4,34.6 332.1,34.6 332.1,86.9 313,86.9 	"/>
	<path fill="#221815" d="M118.5,49V0H99.4v49c0,21.9,17.7,39.6,39.6,39.6c21.8,0,39.6-17.7,39.6-39.6V0h-19.1v49V49
		c0,11.3-9.2,20.5-20.5,20.5C127.7,69.5,118.5,60.4,118.5,49"/>
	<path fill="#221815" d="M225.7,49V0h-19.1v49c0,21.9,17.7,39.6,39.6,39.6c21.9,0,39.6-17.7,39.6-39.6V0h-19.1v49V49
		c0,11.3-9.2,20.5-20.5,20.5C234.8,69.5,225.7,60.4,225.7,49"/>
</g>
<g>
	<path fill="#040000" d="M5.3,109.6v10.7H3.4v-10.7H0v-1.7h8.7v1.7H5.3z"/>
	<path fill="#040000" d="M16.5,120.2v-5.4c0-0.7-0.2-1.2-0.5-1.5c-0.3-0.3-0.8-0.5-1.3-0.5c-0.5,0-0.9,0.2-1.3,0.5
		c-0.3,0.3-0.5,0.8-0.5,1.5v5.4h-1.8v-12.4h1.8v4.4c0.3-0.3,0.6-0.6,1-0.7c0.4-0.2,0.8-0.2,1.2-0.2c0.5,0,0.9,0.1,1.3,0.2
		c0.4,0.2,0.7,0.4,1,0.7c0.3,0.3,0.5,0.6,0.6,1c0.1,0.4,0.2,0.8,0.2,1.3v5.7H16.5z"/>
	<path fill="#040000" d="M22.8,116.3c0,0.8,0.2,1.4,0.6,1.8c0.4,0.4,0.9,0.7,1.7,0.7c0.5,0,0.9-0.1,1.2-0.2c0.3-0.1,0.6-0.4,0.9-0.7
		l1.1,1.1c-0.2,0.2-0.5,0.4-0.7,0.6c-0.2,0.2-0.5,0.3-0.7,0.4c-0.3,0.1-0.5,0.2-0.9,0.3c-0.3,0.1-0.7,0.1-1,0.1
		c-0.6,0-1.1-0.1-1.6-0.2c-0.5-0.2-0.9-0.4-1.3-0.8c-0.4-0.4-0.6-0.8-0.8-1.4s-0.3-1.3-0.3-2.1c0-1.4,0.3-2.5,1-3.3
		c0.7-0.8,1.6-1.2,2.7-1.2c0.6,0,1.1,0.1,1.6,0.3c0.5,0.2,0.9,0.5,1.2,0.9c0.3,0.4,0.6,0.8,0.7,1.3c0.2,0.5,0.3,1.1,0.3,1.7v0.8
		H22.8z M26.7,115.1c0-0.3,0-0.5-0.1-0.7c0-0.2-0.1-0.4-0.2-0.5c-0.1-0.3-0.4-0.6-0.7-0.8c-0.3-0.2-0.7-0.3-1.1-0.3
		c-0.4,0-0.8,0.1-1.1,0.3c-0.3,0.2-0.5,0.5-0.7,0.8c-0.1,0.2-0.2,0.4-0.2,0.5c0,0.2,0,0.4-0.1,0.7H26.7z"/>
	<path fill="#040000" d="M44.7,116.5c-0.1,0.6-0.3,1.2-0.5,1.6c-0.3,0.5-0.6,0.9-1,1.2c-0.4,0.3-0.8,0.6-1.3,0.7
		c-0.5,0.2-1,0.2-1.6,0.2c-0.6,0-1.2-0.1-1.8-0.3c-0.5-0.2-1-0.6-1.5-1c-0.3-0.3-0.5-0.6-0.7-1c-0.2-0.3-0.3-0.7-0.4-1.1
		c-0.1-0.4-0.1-0.8-0.1-1.3c0-0.5,0-1,0-1.6c0-0.6,0-1.1,0-1.6c0-0.5,0.1-0.9,0.1-1.3c0.1-0.4,0.2-0.8,0.4-1.1
		c0.2-0.3,0.4-0.7,0.7-1c0.4-0.4,0.9-0.8,1.5-1c0.5-0.2,1.1-0.3,1.8-0.3c1.1,0,2.1,0.3,2.9,1c0.8,0.6,1.3,1.6,1.5,2.8h-1.9
		c-0.2-0.6-0.4-1.1-0.8-1.5c-0.4-0.4-1-0.6-1.7-0.6c-0.4,0-0.7,0.1-1,0.2c-0.3,0.1-0.6,0.3-0.8,0.5c-0.2,0.2-0.3,0.3-0.4,0.5
		c-0.1,0.2-0.2,0.4-0.2,0.7c-0.1,0.3-0.1,0.6-0.1,1.1c0,0.4,0,0.9,0,1.6c0,0.6,0,1.1,0,1.6c0,0.4,0.1,0.8,0.1,1.1
		c0.1,0.3,0.1,0.5,0.2,0.7c0.1,0.2,0.2,0.4,0.4,0.5c0.2,0.2,0.5,0.4,0.8,0.5c0.3,0.1,0.7,0.2,1,0.2c0.7,0,1.3-0.2,1.7-0.6
		c0.4-0.4,0.7-0.9,0.9-1.5H44.7z"/>
	<path fill="#040000" d="M54.4,115.8c0,0.8-0.1,1.4-0.2,2c-0.1,0.6-0.4,1.1-0.8,1.5c-0.3,0.3-0.7,0.5-1.1,0.7
		c-0.4,0.2-1,0.3-1.6,0.3c-0.6,0-1.1-0.1-1.5-0.3c-0.4-0.2-0.8-0.4-1.1-0.7c-0.4-0.4-0.7-0.9-0.8-1.5c-0.1-0.6-0.2-1.2-0.2-2
		c0-0.7,0.1-1.4,0.2-2c0.1-0.6,0.4-1.1,0.8-1.5c0.3-0.3,0.6-0.5,1.1-0.7c0.4-0.2,0.9-0.3,1.5-0.3c0.6,0,1.1,0.1,1.6,0.3
		c0.4,0.2,0.8,0.4,1.1,0.7c0.4,0.4,0.7,0.9,0.8,1.5C54.3,114.4,54.4,115.1,54.4,115.8z M52.6,115.8c0-0.5,0-0.9-0.1-1.4
		c-0.1-0.4-0.2-0.8-0.5-1c-0.3-0.3-0.8-0.5-1.3-0.5c-0.5,0-0.9,0.2-1.3,0.5c-0.3,0.3-0.4,0.6-0.5,1c-0.1,0.4-0.1,0.9-0.1,1.4
		c0,0.5,0,0.9,0.1,1.4s0.2,0.8,0.5,1c0.3,0.3,0.8,0.5,1.3,0.5c0.5,0,1-0.2,1.3-0.5c0.3-0.3,0.4-0.6,0.5-1S52.6,116.3,52.6,115.8z"/>
	<path fill="#040000" d="M59.7,120.2c-0.4,0-0.8-0.1-1.1-0.2c-0.3-0.1-0.6-0.3-0.8-0.5c-0.2-0.2-0.3-0.5-0.4-0.8
		c-0.1-0.3-0.1-0.6-0.1-0.9v-9.9H59v9.8c0,0.3,0.1,0.6,0.2,0.8c0.1,0.2,0.4,0.3,0.7,0.3h0.8v1.5H59.7z"/>
	<path fill="#040000" d="M70.2,115.8c0,0.8-0.1,1.4-0.2,2c-0.1,0.6-0.4,1.1-0.8,1.5c-0.3,0.3-0.7,0.5-1.1,0.7
		c-0.4,0.2-1,0.3-1.6,0.3c-0.6,0-1.1-0.1-1.5-0.3c-0.4-0.2-0.8-0.4-1.1-0.7c-0.4-0.4-0.7-0.9-0.8-1.5c-0.1-0.6-0.2-1.2-0.2-2
		c0-0.7,0.1-1.4,0.2-2c0.1-0.6,0.4-1.1,0.8-1.5c0.3-0.3,0.6-0.5,1.1-0.7c0.4-0.2,0.9-0.3,1.5-0.3c0.6,0,1.1,0.1,1.6,0.3
		c0.4,0.2,0.8,0.4,1.1,0.7c0.4,0.4,0.7,0.9,0.8,1.5C70.1,114.4,70.2,115.1,70.2,115.8z M68.4,115.8c0-0.5,0-0.9-0.1-1.4
		c-0.1-0.4-0.2-0.8-0.5-1c-0.3-0.3-0.8-0.5-1.3-0.5c-0.5,0-0.9,0.2-1.3,0.5c-0.3,0.3-0.4,0.6-0.5,1c-0.1,0.4-0.1,0.9-0.1,1.4
		c0,0.5,0,0.9,0.1,1.4s0.2,0.8,0.5,1c0.3,0.3,0.8,0.5,1.3,0.5c0.5,0,1-0.2,1.3-0.5c0.3-0.3,0.4-0.6,0.5-1
		C68.4,116.8,68.4,116.3,68.4,115.8z"/>
	<path fill="#040000" d="M77.9,113.5c-0.2-0.2-0.4-0.3-0.6-0.4c-0.2-0.1-0.4-0.1-0.7-0.1c-0.5,0-0.9,0.2-1.2,0.5
		c-0.3,0.4-0.5,0.8-0.5,1.5v5.3h-1.8v-8.8h1.7v1c0.2-0.3,0.6-0.6,1-0.8c0.4-0.2,0.9-0.3,1.4-0.3c0.4,0,0.8,0.1,1.1,0.2
		c0.3,0.1,0.7,0.3,1,0.6L77.9,113.5z"/>
	<path fill="#040000" d="M87.7,117.5c0,0.5-0.1,0.9-0.3,1.2c-0.2,0.3-0.4,0.6-0.8,0.9c-0.3,0.2-0.7,0.4-1.2,0.5
		c-0.5,0.1-0.9,0.2-1.5,0.2c-0.7,0-1.4-0.1-2-0.3c-0.6-0.2-1.2-0.5-1.7-1l1.2-1.2c0.4,0.4,0.8,0.6,1.2,0.7c0.4,0.1,0.9,0.2,1.3,0.2
		c0.5,0,1-0.1,1.4-0.3c0.4-0.2,0.6-0.5,0.6-0.9c0-0.3-0.1-0.5-0.3-0.7c-0.2-0.2-0.5-0.3-0.9-0.3l-1.4-0.1c-0.8-0.1-1.5-0.3-1.9-0.7
		c-0.5-0.4-0.7-1-0.7-1.7c0-0.4,0.1-0.8,0.3-1.1c0.2-0.3,0.4-0.6,0.7-0.8c0.3-0.2,0.7-0.4,1.1-0.5c0.4-0.1,0.8-0.2,1.3-0.2
		c0.7,0,1.3,0.1,1.8,0.2c0.6,0.2,1,0.4,1.4,0.8l-1.1,1.1c-0.3-0.2-0.6-0.4-1-0.5s-0.8-0.1-1.2-0.1c-0.5,0-0.9,0.1-1.2,0.3
		c-0.3,0.2-0.4,0.5-0.4,0.8c0,0.3,0.1,0.5,0.3,0.7c0.2,0.2,0.5,0.3,1,0.3l1.4,0.1c0.8,0.1,1.5,0.3,1.9,0.7
		C87.5,116.2,87.7,116.8,87.7,117.5z"/>
	<path fill="#040000" d="M99.8,120.2v-0.8c-0.3,0.3-0.7,0.6-1,0.7c-0.3,0.1-0.8,0.2-1.3,0.2c-0.6,0-1-0.1-1.4-0.2
		c-0.4-0.1-0.7-0.3-1-0.6c-0.5-0.5-0.7-1.1-0.7-1.9c0-0.7,0.3-1.3,0.8-1.8c0.5-0.5,1.3-0.7,2.3-0.7h2.3v-0.6c0-0.6-0.1-1-0.4-1.2
		c-0.3-0.3-0.8-0.4-1.5-0.4c-0.5,0-0.9,0.1-1.1,0.2c-0.3,0.1-0.5,0.3-0.8,0.7l-1.2-1.1c0.4-0.5,0.9-0.8,1.3-1
		c0.5-0.2,1.1-0.3,1.8-0.3c2.4,0,3.6,1,3.6,3v5.9H99.8z M99.8,116.3h-2.1c-0.5,0-0.9,0.1-1.2,0.3c-0.3,0.2-0.4,0.5-0.4,0.9
		c0,0.4,0.1,0.7,0.4,0.9c0.3,0.2,0.7,0.3,1.2,0.3c0.3,0,0.6,0,0.9-0.1c0.3-0.1,0.5-0.2,0.7-0.4c0.3-0.3,0.4-0.7,0.4-1.3V116.3z"/>
	<path fill="#040000" d="M110.2,120.2v-5.4c0-0.7-0.2-1.2-0.5-1.5c-0.3-0.3-0.8-0.5-1.3-0.5c-0.5,0-0.9,0.2-1.3,0.5
		s-0.5,0.8-0.5,1.5v5.4h-1.8v-8.8h1.7v0.9c0.3-0.3,0.7-0.6,1.1-0.7c0.4-0.2,0.8-0.2,1.3-0.2c0.5,0,0.9,0.1,1.2,0.2
		c0.4,0.1,0.7,0.3,0.9,0.6c0.3,0.3,0.6,0.7,0.7,1.1c0.1,0.4,0.2,0.9,0.2,1.4v5.6H110.2z"/>
	<path fill="#040000" d="M120.2,120.2v-0.9c-0.3,0.4-0.7,0.7-1.1,0.8c-0.4,0.1-0.8,0.2-1.3,0.2c-0.4,0-0.8-0.1-1.2-0.2
		c-0.4-0.1-0.7-0.3-0.9-0.6c-0.2-0.2-0.4-0.5-0.5-0.8c-0.1-0.3-0.2-0.6-0.3-0.9c-0.1-0.3-0.1-0.7-0.1-1c0-0.3,0-0.7,0-1
		c0-0.3,0-0.7,0-1c0-0.3,0.1-0.7,0.1-1c0.1-0.3,0.2-0.6,0.3-0.9c0.1-0.3,0.3-0.5,0.5-0.8c0.2-0.2,0.5-0.4,0.9-0.6
		c0.4-0.1,0.8-0.2,1.2-0.2c0.5,0,0.9,0.1,1.3,0.2c0.4,0.1,0.7,0.4,1,0.8v-4.4h1.8v12.4H120.2z M120.2,115.8c0-0.4,0-0.8-0.1-1.1
		c0-0.4-0.1-0.7-0.3-0.9c-0.1-0.3-0.3-0.5-0.6-0.6c-0.2-0.2-0.6-0.2-1-0.2c-0.4,0-0.7,0.1-1,0.2c-0.2,0.2-0.4,0.4-0.6,0.6
		c-0.1,0.3-0.2,0.6-0.3,0.9c0,0.4-0.1,0.7-0.1,1.1c0,0.4,0,0.8,0.1,1.1c0,0.4,0.1,0.7,0.3,0.9c0.1,0.3,0.3,0.5,0.6,0.6
		c0.2,0.2,0.6,0.2,1,0.2c0.4,0,0.7-0.1,1-0.2c0.2-0.2,0.4-0.4,0.6-0.6c0.1-0.3,0.2-0.6,0.3-0.9C120.2,116.6,120.2,116.2,120.2,115.8
		z"/>
	<path fill="#040000" d="M137.9,116.7c0,0.6-0.1,1.1-0.3,1.5c-0.2,0.5-0.5,0.8-0.9,1.1c-0.4,0.3-0.9,0.6-1.4,0.7
		c-0.5,0.2-1.1,0.2-1.8,0.2c-0.9,0-1.8-0.1-2.4-0.4c-0.7-0.2-1.3-0.7-1.9-1.3l1.2-1.2c0.5,0.5,0.9,0.8,1.4,0.9
		c0.5,0.2,1.1,0.3,1.7,0.3c0.8,0,1.4-0.2,1.9-0.5c0.4-0.3,0.7-0.8,0.7-1.4c0-0.6-0.2-1-0.5-1.3c-0.2-0.2-0.3-0.3-0.5-0.3
		c-0.2-0.1-0.5-0.1-0.8-0.2l-1.5-0.2c-1-0.1-1.8-0.5-2.3-1c-0.6-0.6-0.9-1.4-0.9-2.4c0-0.5,0.1-1,0.3-1.5c0.2-0.4,0.5-0.8,0.8-1.2
		c0.4-0.3,0.8-0.6,1.3-0.7c0.5-0.2,1.1-0.3,1.7-0.3c0.8,0,1.5,0.1,2.1,0.3c0.6,0.2,1.2,0.6,1.7,1.1l-1.2,1.2
		c-0.4-0.4-0.8-0.6-1.2-0.8c-0.4-0.1-0.9-0.2-1.5-0.2c-0.7,0-1.3,0.2-1.7,0.5s-0.6,0.8-0.6,1.4c0,0.2,0,0.4,0.1,0.6
		c0.1,0.2,0.2,0.4,0.4,0.5c0.3,0.3,0.8,0.5,1.4,0.6l1.4,0.2c0.6,0.1,1,0.2,1.4,0.4c0.3,0.1,0.7,0.3,0.9,0.6c0.3,0.3,0.6,0.7,0.8,1.1
		C137.9,115.7,137.9,116.2,137.9,116.7z"/>
	<path fill="#040000" d="M146.1,120.2v-5.4c0-0.7-0.2-1.2-0.5-1.5c-0.3-0.3-0.8-0.5-1.3-0.5c-0.5,0-0.9,0.2-1.3,0.5
		c-0.3,0.3-0.5,0.8-0.5,1.5v5.4h-1.8v-12.4h1.8v4.4c0.3-0.3,0.6-0.6,1-0.7c0.4-0.2,0.8-0.2,1.2-0.2c0.5,0,0.9,0.1,1.3,0.2
		c0.4,0.2,0.7,0.4,1,0.7c0.3,0.3,0.5,0.6,0.6,1c0.1,0.4,0.2,0.8,0.2,1.3v5.7H146.1z"/>
	<path fill="#040000" d="M155.8,120.2v-0.8c-0.3,0.3-0.7,0.6-1,0.7c-0.3,0.1-0.8,0.2-1.3,0.2c-0.6,0-1-0.1-1.4-0.2
		c-0.4-0.1-0.7-0.3-1-0.6c-0.5-0.5-0.7-1.1-0.7-1.9c0-0.7,0.3-1.3,0.8-1.8c0.5-0.5,1.3-0.7,2.3-0.7h2.3v-0.6c0-0.6-0.1-1-0.4-1.2
		c-0.3-0.3-0.8-0.4-1.5-0.4c-0.5,0-0.9,0.1-1.1,0.2c-0.3,0.1-0.5,0.3-0.8,0.7l-1.2-1.1c0.4-0.5,0.9-0.8,1.3-1
		c0.5-0.2,1.1-0.3,1.8-0.3c2.4,0,3.6,1,3.6,3v5.9H155.8z M155.8,116.3h-2.1c-0.5,0-0.9,0.1-1.2,0.3c-0.3,0.2-0.4,0.5-0.4,0.9
		c0,0.4,0.1,0.7,0.4,0.9c0.3,0.2,0.7,0.3,1.2,0.3c0.3,0,0.6,0,0.9-0.1c0.3-0.1,0.5-0.2,0.7-0.4c0.3-0.3,0.4-0.7,0.4-1.3V116.3z"/>
	<path fill="#040000" d="M168,115.8c0,0.3,0,0.7,0,1c0,0.3-0.1,0.7-0.1,1c-0.1,0.3-0.2,0.6-0.3,0.9c-0.1,0.3-0.3,0.5-0.5,0.8
		c-0.2,0.2-0.6,0.4-0.9,0.6c-0.4,0.1-0.8,0.2-1.2,0.2c-0.5,0-0.9-0.1-1.3-0.2c-0.4-0.1-0.7-0.4-1-0.8v4.5h-1.8v-12.4h1.7v0.9
		c0.3-0.4,0.7-0.7,1.1-0.8s0.8-0.2,1.3-0.2c0.4,0,0.8,0.1,1.2,0.2s0.7,0.3,0.9,0.6c0.2,0.2,0.4,0.5,0.5,0.8c0.1,0.3,0.2,0.6,0.3,0.9
		c0.1,0.3,0.1,0.7,0.1,1C168,115.2,168,115.5,168,115.8z M166.2,115.8c0-0.4,0-0.8-0.1-1.1c0-0.4-0.1-0.7-0.3-0.9
		c-0.1-0.3-0.3-0.5-0.6-0.6c-0.2-0.2-0.6-0.2-1-0.2c-0.4,0-0.7,0.1-1,0.2c-0.2,0.2-0.4,0.4-0.6,0.6c-0.1,0.3-0.2,0.6-0.3,0.9
		c0,0.4-0.1,0.7-0.1,1.1c0,0.4,0,0.8,0.1,1.1c0,0.4,0.1,0.7,0.3,0.9c0.1,0.3,0.3,0.5,0.6,0.6c0.2,0.2,0.6,0.2,1,0.2
		c0.4,0,0.7-0.1,1-0.2c0.2-0.2,0.4-0.4,0.6-0.6c0.1-0.3,0.2-0.6,0.3-0.9C166.2,116.6,166.2,116.2,166.2,115.8z"/>
	<path fill="#040000" d="M172.2,116.3c0,0.8,0.2,1.4,0.6,1.8c0.4,0.4,0.9,0.7,1.7,0.7c0.5,0,0.9-0.1,1.2-0.2
		c0.3-0.1,0.6-0.4,0.9-0.7l1.1,1.1c-0.2,0.2-0.5,0.4-0.7,0.6c-0.2,0.2-0.5,0.3-0.7,0.4c-0.3,0.1-0.5,0.2-0.9,0.3
		c-0.3,0.1-0.7,0.1-1,0.1c-0.6,0-1.1-0.1-1.6-0.2c-0.5-0.2-0.9-0.4-1.3-0.8c-0.4-0.4-0.6-0.8-0.8-1.4c-0.2-0.6-0.3-1.3-0.3-2.1
		c0-1.4,0.3-2.5,1-3.3c0.7-0.8,1.6-1.2,2.7-1.2c0.6,0,1.1,0.1,1.6,0.3c0.5,0.2,0.9,0.5,1.2,0.9c0.3,0.4,0.6,0.8,0.7,1.3
		c0.2,0.5,0.3,1.1,0.3,1.7v0.8H172.2z M176.2,115.1c0-0.3,0-0.5-0.1-0.7c0-0.2-0.1-0.4-0.2-0.5c-0.1-0.3-0.4-0.6-0.7-0.8
		c-0.3-0.2-0.7-0.3-1.1-0.3c-0.4,0-0.8,0.1-1.1,0.3c-0.3,0.2-0.5,0.5-0.7,0.8c-0.1,0.2-0.2,0.4-0.2,0.5c0,0.2,0,0.4-0.1,0.7H176.2z"
		/>
	<path fill="#040000" d="M187.3,117.5c0,0.5-0.1,0.9-0.3,1.2c-0.2,0.3-0.4,0.6-0.8,0.9c-0.3,0.2-0.7,0.4-1.2,0.5
		c-0.5,0.1-0.9,0.2-1.5,0.2c-0.7,0-1.4-0.1-2-0.3c-0.6-0.2-1.2-0.5-1.7-1l1.2-1.2c0.4,0.4,0.8,0.6,1.2,0.7c0.4,0.1,0.9,0.2,1.3,0.2
		c0.5,0,1-0.1,1.4-0.3c0.4-0.2,0.6-0.5,0.6-0.9c0-0.3-0.1-0.5-0.3-0.7c-0.2-0.2-0.5-0.3-0.9-0.3l-1.4-0.1c-0.8-0.1-1.5-0.3-1.9-0.7
		c-0.5-0.4-0.7-1-0.7-1.7c0-0.4,0.1-0.8,0.3-1.1c0.2-0.3,0.4-0.6,0.7-0.8c0.3-0.2,0.7-0.4,1.1-0.5s0.8-0.2,1.3-0.2
		c0.7,0,1.3,0.1,1.8,0.2c0.6,0.2,1,0.4,1.4,0.8l-1.1,1.1c-0.3-0.2-0.6-0.4-1-0.5s-0.8-0.1-1.2-0.1c-0.5,0-0.9,0.1-1.2,0.3
		c-0.3,0.2-0.4,0.5-0.4,0.8c0,0.3,0.1,0.5,0.3,0.7c0.2,0.2,0.5,0.3,1,0.3l1.4,0.1c0.8,0.1,1.5,0.3,1.9,0.7
		C187.1,116.2,187.3,116.8,187.3,117.5z"/>
	<path fill="#040000" d="M201.6,115.8c0,0.8-0.1,1.4-0.2,2c-0.1,0.6-0.4,1.1-0.8,1.5c-0.3,0.3-0.7,0.5-1.1,0.7
		c-0.4,0.2-1,0.3-1.6,0.3c-0.6,0-1.1-0.1-1.5-0.3c-0.4-0.2-0.8-0.4-1.1-0.7c-0.4-0.4-0.7-0.9-0.8-1.5c-0.1-0.6-0.2-1.2-0.2-2
		c0-0.7,0.1-1.4,0.2-2c0.1-0.6,0.4-1.1,0.8-1.5c0.3-0.3,0.6-0.5,1.1-0.7c0.4-0.2,0.9-0.3,1.5-0.3c0.6,0,1.1,0.1,1.6,0.3
		c0.4,0.2,0.8,0.4,1.1,0.7c0.4,0.4,0.7,0.9,0.8,1.5C201.5,114.4,201.6,115.1,201.6,115.8z M199.8,115.8c0-0.5,0-0.9-0.1-1.4
		c-0.1-0.4-0.2-0.8-0.5-1c-0.3-0.3-0.8-0.5-1.3-0.5c-0.5,0-0.9,0.2-1.3,0.5c-0.3,0.3-0.4,0.6-0.5,1c-0.1,0.4-0.1,0.9-0.1,1.4
		c0,0.5,0,0.9,0.1,1.4c0.1,0.4,0.2,0.8,0.5,1c0.3,0.3,0.8,0.5,1.3,0.5c0.5,0,1-0.2,1.3-0.5c0.3-0.3,0.4-0.6,0.5-1
		C199.8,116.8,199.8,116.3,199.8,115.8z"/>
	<path fill="#040000" d="M206.6,112.9v7.3h-1.8v-7.3h-1v-1.4h1v-1.4c0-0.3,0-0.6,0.1-0.9c0.1-0.3,0.2-0.6,0.4-0.8
		c0.2-0.2,0.4-0.4,0.7-0.5c0.3-0.1,0.7-0.2,1.1-0.2h1.1v1.5h-0.8c-0.3,0-0.6,0.1-0.7,0.3c-0.2,0.2-0.2,0.4-0.2,0.8v1.3h1.8v1.4
		H206.6z"/>
	<path fill="#040000" d="M218.1,120.2c-0.4,0-0.8-0.1-1.1-0.2s-0.6-0.3-0.7-0.5c-0.2-0.2-0.3-0.5-0.4-0.8c-0.1-0.3-0.1-0.6-0.1-0.9
		v-4.8h-1v-1.4h1v-2.7h1.8v2.7h1.7v1.4h-1.7v4.8c0,0.3,0.1,0.6,0.2,0.8c0.2,0.2,0.4,0.3,0.7,0.3h0.7v1.5H218.1z"/>
	<path fill="#040000" d="M227.2,120.2v-5.4c0-0.7-0.2-1.2-0.5-1.5c-0.3-0.3-0.8-0.5-1.3-0.5c-0.5,0-0.9,0.2-1.3,0.5
		c-0.3,0.3-0.5,0.8-0.5,1.5v5.4h-1.8v-12.4h1.8v4.4c0.3-0.3,0.6-0.6,1-0.7c0.4-0.2,0.8-0.2,1.2-0.2c0.5,0,0.9,0.1,1.3,0.2
		c0.4,0.2,0.7,0.4,1,0.7c0.3,0.3,0.5,0.6,0.6,1c0.1,0.4,0.2,0.8,0.2,1.3v5.7H227.2z"/>
	<path fill="#040000" d="M233.5,116.3c0,0.8,0.2,1.4,0.6,1.8c0.4,0.4,0.9,0.7,1.7,0.7c0.5,0,0.9-0.1,1.2-0.2
		c0.3-0.1,0.6-0.4,0.9-0.7l1.1,1.1c-0.2,0.2-0.5,0.4-0.7,0.6c-0.2,0.2-0.5,0.3-0.7,0.4c-0.3,0.1-0.5,0.2-0.9,0.3
		c-0.3,0.1-0.7,0.1-1,0.1c-0.6,0-1.1-0.1-1.6-0.2c-0.5-0.2-0.9-0.4-1.3-0.8c-0.4-0.4-0.6-0.8-0.8-1.4c-0.2-0.6-0.3-1.3-0.3-2.1
		c0-1.4,0.3-2.5,1-3.3c0.7-0.8,1.6-1.2,2.7-1.2c0.6,0,1.1,0.1,1.6,0.3c0.5,0.2,0.9,0.5,1.2,0.9c0.3,0.4,0.6,0.8,0.7,1.3
		c0.2,0.5,0.3,1.1,0.3,1.7v0.8H233.5z M237.5,115.1c0-0.3,0-0.5-0.1-0.7s-0.1-0.4-0.2-0.5c-0.1-0.3-0.4-0.6-0.7-0.8
		c-0.3-0.2-0.7-0.3-1.1-0.3s-0.8,0.1-1.1,0.3c-0.3,0.2-0.5,0.5-0.7,0.8c-0.1,0.2-0.2,0.4-0.2,0.5c0,0.2,0,0.4-0.1,0.7H237.5z"/>
	<path fill="#040000" d="M257.1,120.2h-1.6l-2.5-8.7l-2.5,8.7h-1.6l-3.2-12.4h2l2.2,8.8l2.5-8.8h1.5l2.5,8.8l2.2-8.8h2L257.1,120.2z
		"/>
	<path fill="#040000" d="M269.4,115.8c0,0.8-0.1,1.4-0.2,2c-0.1,0.6-0.4,1.1-0.8,1.5c-0.3,0.3-0.7,0.5-1.1,0.7
		c-0.4,0.2-1,0.3-1.6,0.3s-1.1-0.1-1.5-0.3c-0.4-0.2-0.8-0.4-1.1-0.7c-0.4-0.4-0.7-0.9-0.8-1.5c-0.1-0.6-0.2-1.2-0.2-2
		c0-0.7,0.1-1.4,0.2-2c0.1-0.6,0.4-1.1,0.8-1.5c0.3-0.3,0.6-0.5,1.1-0.7c0.4-0.2,0.9-0.3,1.5-0.3s1.1,0.1,1.6,0.3
		c0.4,0.2,0.8,0.4,1.1,0.7c0.4,0.4,0.7,0.9,0.8,1.5C269.3,114.4,269.4,115.1,269.4,115.8z M267.6,115.8c0-0.5,0-0.9-0.1-1.4
		c-0.1-0.4-0.2-0.8-0.5-1c-0.3-0.3-0.8-0.5-1.3-0.5c-0.5,0-0.9,0.2-1.3,0.5c-0.3,0.3-0.4,0.6-0.5,1c-0.1,0.4-0.1,0.9-0.1,1.4
		c0,0.5,0,0.9,0.1,1.4c0.1,0.4,0.2,0.8,0.5,1c0.3,0.3,0.8,0.5,1.3,0.5c0.5,0,1-0.2,1.3-0.5c0.3-0.3,0.4-0.6,0.5-1
		C267.6,116.8,267.6,116.3,267.6,115.8z"/>
	<path fill="#040000" d="M277.2,113.5c-0.2-0.2-0.4-0.3-0.6-0.4c-0.2-0.1-0.4-0.1-0.7-0.1c-0.5,0-0.9,0.2-1.2,0.5
		c-0.3,0.4-0.5,0.8-0.5,1.5v5.3h-1.8v-8.8h1.7v1c0.2-0.3,0.6-0.6,1-0.8c0.4-0.2,0.9-0.3,1.4-0.3c0.4,0,0.8,0.1,1.1,0.2
		c0.3,0.1,0.7,0.3,1,0.6L277.2,113.5z"/>
	<path fill="#040000" d="M282.8,120.2c-0.4,0-0.8-0.1-1.1-0.2c-0.3-0.1-0.6-0.3-0.8-0.5c-0.2-0.2-0.3-0.5-0.4-0.8
		c-0.1-0.3-0.1-0.6-0.1-0.9v-9.9h1.8v9.8c0,0.3,0.1,0.6,0.2,0.8c0.1,0.2,0.4,0.3,0.7,0.3h0.8v1.5H282.8z"/>
	<path fill="#040000" d="M291.4,120.2v-0.9c-0.3,0.4-0.7,0.7-1.1,0.8c-0.4,0.1-0.8,0.2-1.3,0.2c-0.4,0-0.8-0.1-1.2-0.2
		c-0.4-0.1-0.7-0.3-0.9-0.6c-0.2-0.2-0.4-0.5-0.5-0.8c-0.1-0.3-0.2-0.6-0.3-0.9c-0.1-0.3-0.1-0.7-0.1-1c0-0.3,0-0.7,0-1
		c0-0.3,0-0.7,0-1c0-0.3,0.1-0.7,0.1-1c0.1-0.3,0.2-0.6,0.3-0.9c0.1-0.3,0.3-0.5,0.5-0.8c0.2-0.2,0.5-0.4,0.9-0.6
		c0.4-0.1,0.8-0.2,1.2-0.2c0.5,0,0.9,0.1,1.3,0.2c0.4,0.1,0.7,0.4,1,0.8v-4.4h1.8v12.4H291.4z M291.4,115.8c0-0.4,0-0.8-0.1-1.1
		c0-0.4-0.1-0.7-0.3-0.9c-0.1-0.3-0.3-0.5-0.6-0.6c-0.2-0.2-0.6-0.2-1-0.2c-0.4,0-0.7,0.1-1,0.2c-0.2,0.2-0.4,0.4-0.6,0.6
		c-0.1,0.3-0.2,0.6-0.3,0.9c0,0.4-0.1,0.7-0.1,1.1c0,0.4,0,0.8,0.1,1.1c0,0.4,0.1,0.7,0.3,0.9c0.1,0.3,0.3,0.5,0.6,0.6
		c0.2,0.2,0.6,0.2,1,0.2c0.4,0,0.7-0.1,1-0.2c0.2-0.2,0.4-0.4,0.6-0.6c0.1-0.3,0.2-0.6,0.3-0.9C291.4,116.6,291.4,116.2,291.4,115.8
		z"/>
	<path fill="#040000" d="M296.4,120.2v-2.1h2.1v2.1H296.4z"/>
	<path fill="#040000" d="M313.8,120.2l-0.9-2.5h-4.9l-0.9,2.5h-2l4.5-12.4h1.5l4.5,12.4H313.8z M310.6,110.7l-1.9,5.5h3.8
		L310.6,110.7z"/>
	<path fill="#040000" d="M324.4,117.5c0,0.5-0.1,0.9-0.3,1.2c-0.2,0.3-0.4,0.6-0.8,0.9c-0.3,0.2-0.7,0.4-1.2,0.5
		c-0.5,0.1-0.9,0.2-1.5,0.2c-0.7,0-1.4-0.1-2-0.3c-0.6-0.2-1.2-0.5-1.7-1l1.2-1.2c0.4,0.4,0.8,0.6,1.2,0.7c0.4,0.1,0.9,0.2,1.3,0.2
		c0.5,0,1-0.1,1.4-0.3c0.4-0.2,0.6-0.5,0.6-0.9c0-0.3-0.1-0.5-0.3-0.7c-0.2-0.2-0.5-0.3-0.9-0.3l-1.4-0.1c-0.8-0.1-1.5-0.3-1.9-0.7
		c-0.5-0.4-0.7-1-0.7-1.7c0-0.4,0.1-0.8,0.3-1.1c0.2-0.3,0.4-0.6,0.7-0.8s0.7-0.4,1.1-0.5c0.4-0.1,0.8-0.2,1.3-0.2
		c0.7,0,1.3,0.1,1.8,0.2c0.6,0.2,1,0.4,1.4,0.8l-1.1,1.1c-0.3-0.2-0.6-0.4-1-0.5c-0.4-0.1-0.8-0.1-1.2-0.1c-0.5,0-0.9,0.1-1.2,0.3
		c-0.3,0.2-0.4,0.5-0.4,0.8c0,0.3,0.1,0.5,0.3,0.7c0.2,0.2,0.5,0.3,1,0.3l1.4,0.1c0.8,0.1,1.5,0.3,1.9,0.7
		C324.2,116.2,324.4,116.8,324.4,117.5z"/>
	<path fill="#040000" d="M333.6,117.5c0,0.5-0.1,0.9-0.3,1.2c-0.2,0.3-0.4,0.6-0.8,0.9c-0.3,0.2-0.7,0.4-1.2,0.5
		c-0.5,0.1-0.9,0.2-1.5,0.2c-0.7,0-1.4-0.1-2-0.3c-0.6-0.2-1.2-0.5-1.7-1l1.2-1.2c0.4,0.4,0.8,0.6,1.2,0.7c0.4,0.1,0.9,0.2,1.3,0.2
		c0.5,0,1-0.1,1.4-0.3c0.4-0.2,0.6-0.5,0.6-0.9c0-0.3-0.1-0.5-0.3-0.7c-0.2-0.2-0.5-0.3-0.9-0.3l-1.4-0.1c-0.8-0.1-1.5-0.3-1.9-0.7
		c-0.5-0.4-0.7-1-0.7-1.7c0-0.4,0.1-0.8,0.3-1.1c0.2-0.3,0.4-0.6,0.7-0.8c0.3-0.2,0.7-0.4,1.1-0.5c0.4-0.1,0.8-0.2,1.3-0.2
		c0.7,0,1.3,0.1,1.8,0.2c0.6,0.2,1,0.4,1.4,0.8l-1.1,1.1c-0.3-0.2-0.6-0.4-1-0.5c-0.4-0.1-0.8-0.1-1.2-0.1c-0.5,0-0.9,0.1-1.2,0.3
		s-0.4,0.5-0.4,0.8c0,0.3,0.1,0.5,0.3,0.7c0.2,0.2,0.5,0.3,1,0.3l1.4,0.1c0.8,0.1,1.5,0.3,1.9,0.7
		C333.4,116.2,333.6,116.8,333.6,117.5z"/>
	<path fill="#040000" d="M337.5,116.3c0,0.8,0.2,1.4,0.6,1.8c0.4,0.4,0.9,0.7,1.7,0.7c0.5,0,0.9-0.1,1.2-0.2
		c0.3-0.1,0.6-0.4,0.9-0.7l1.1,1.1c-0.2,0.2-0.5,0.4-0.7,0.6c-0.2,0.2-0.5,0.3-0.7,0.4c-0.3,0.1-0.5,0.2-0.9,0.3
		c-0.3,0.1-0.7,0.1-1,0.1c-0.6,0-1.1-0.1-1.6-0.2c-0.5-0.2-0.9-0.4-1.3-0.8c-0.4-0.4-0.6-0.8-0.8-1.4c-0.2-0.6-0.3-1.3-0.3-2.1
		c0-1.4,0.3-2.5,1-3.3c0.7-0.8,1.6-1.2,2.7-1.2c0.6,0,1.1,0.1,1.6,0.3c0.5,0.2,0.9,0.5,1.2,0.9c0.3,0.4,0.6,0.8,0.7,1.3
		c0.2,0.5,0.3,1.1,0.3,1.7v0.8H337.5z M341.5,115.1c0-0.3,0-0.5-0.1-0.7s-0.1-0.4-0.2-0.5c-0.1-0.3-0.4-0.6-0.7-0.8
		c-0.3-0.2-0.7-0.3-1.1-0.3s-0.8,0.1-1.1,0.3c-0.3,0.2-0.5,0.5-0.7,0.8c-0.1,0.2-0.2,0.4-0.2,0.5c0,0.2,0,0.4-0.1,0.7H341.5z"/>
	<path fill="#040000" d="M356.9,120.2v-5.4c0-0.7-0.2-1.2-0.5-1.5c-0.3-0.3-0.8-0.5-1.3-0.5c-0.2,0-0.5,0-0.7,0.1
		c-0.2,0.1-0.4,0.2-0.6,0.3c-0.2,0.2-0.3,0.4-0.4,0.6c-0.1,0.2-0.1,0.5-0.1,0.8v5.5h-1.8v-5.4c0-0.7-0.2-1.2-0.5-1.5
		c-0.3-0.3-0.8-0.5-1.3-0.5c-0.5,0-0.9,0.2-1.3,0.5c-0.4,0.3-0.5,0.8-0.5,1.5v5.4h-1.8v-8.8h1.7v0.9c0.3-0.3,0.7-0.6,1.1-0.7
		c0.4-0.2,0.8-0.3,1.3-0.3c1.1,0,1.9,0.4,2.5,1.3c0.7-0.9,1.6-1.3,2.8-1.3c0.5,0,0.9,0.1,1.3,0.2c0.4,0.1,0.7,0.3,1,0.6
		c0.3,0.3,0.6,0.7,0.7,1.1c0.1,0.4,0.2,0.9,0.2,1.4v5.6H356.9z"/>
	<path fill="#040000" d="M369.1,115.8c0,0.3,0,0.7,0,1c0,0.3-0.1,0.7-0.1,1c-0.1,0.3-0.2,0.6-0.3,0.9c-0.1,0.3-0.3,0.5-0.5,0.8
		c-0.2,0.2-0.6,0.4-0.9,0.6c-0.4,0.1-0.8,0.2-1.2,0.2c-0.5,0-0.9-0.1-1.3-0.2c-0.4-0.1-0.7-0.4-1.1-0.8v0.9h-1.7v-12.4h1.8v4.4
		c0.3-0.4,0.7-0.6,1-0.8c0.4-0.1,0.8-0.2,1.3-0.2c0.4,0,0.8,0.1,1.2,0.2c0.4,0.1,0.7,0.3,0.9,0.6c0.2,0.2,0.4,0.5,0.5,0.8
		c0.1,0.3,0.2,0.6,0.3,0.9c0.1,0.3,0.1,0.7,0.1,1C369.1,115.2,369.1,115.5,369.1,115.8z M367.3,115.8c0-0.4,0-0.8-0.1-1.1
		c0-0.4-0.1-0.7-0.3-0.9c-0.1-0.3-0.3-0.5-0.6-0.6c-0.2-0.2-0.6-0.2-1-0.2c-0.4,0-0.7,0.1-1,0.2c-0.2,0.2-0.4,0.4-0.6,0.6
		c-0.1,0.3-0.2,0.6-0.3,0.9c0,0.4-0.1,0.7-0.1,1.1c0,0.4,0,0.8,0.1,1.1c0,0.4,0.1,0.7,0.3,0.9c0.1,0.3,0.3,0.5,0.6,0.6
		c0.2,0.2,0.6,0.2,1,0.2c0.4,0,0.7-0.1,1-0.2c0.2-0.2,0.4-0.4,0.6-0.6c0.1-0.3,0.2-0.6,0.3-0.9C367.3,116.6,367.3,116.2,367.3,115.8
		z"/>
	<path fill="#040000" d="M374.4,120.2c-0.4,0-0.8-0.1-1.1-0.2c-0.3-0.1-0.6-0.3-0.8-0.5c-0.2-0.2-0.3-0.5-0.4-0.8
		c-0.1-0.3-0.1-0.6-0.1-0.9v-9.9h1.8v9.8c0,0.3,0.1,0.6,0.2,0.8c0.1,0.2,0.4,0.3,0.7,0.3h0.8v1.5H374.4z"/>
	<path fill="#040000" d="M379.2,116.3c0,0.8,0.2,1.4,0.6,1.8c0.4,0.4,0.9,0.7,1.7,0.7c0.5,0,0.9-0.1,1.2-0.2
		c0.3-0.1,0.6-0.4,0.9-0.7l1.1,1.1c-0.2,0.2-0.5,0.4-0.7,0.6c-0.2,0.2-0.5,0.3-0.7,0.4c-0.3,0.1-0.5,0.2-0.9,0.3
		c-0.3,0.1-0.7,0.1-1,0.1c-0.6,0-1.1-0.1-1.6-0.2c-0.5-0.2-0.9-0.4-1.3-0.8c-0.4-0.4-0.6-0.8-0.8-1.4c-0.2-0.6-0.3-1.3-0.3-2.1
		c0-1.4,0.3-2.5,1-3.3c0.7-0.8,1.6-1.2,2.7-1.2c0.6,0,1.1,0.1,1.6,0.3c0.5,0.2,0.9,0.5,1.2,0.9c0.3,0.4,0.6,0.8,0.7,1.3
		c0.2,0.5,0.3,1.1,0.3,1.7v0.8H379.2z M383.2,115.1c0-0.3,0-0.5-0.1-0.7s-0.1-0.4-0.2-0.5c-0.1-0.3-0.4-0.6-0.7-0.8
		c-0.3-0.2-0.7-0.3-1.1-0.3c-0.4,0-0.8,0.1-1.1,0.3c-0.3,0.2-0.5,0.5-0.7,0.8c-0.1,0.2-0.2,0.4-0.2,0.5s0,0.4-0.1,0.7H383.2z"/>
	<path fill="#040000" d="M392.9,120.2v-0.9c-0.3,0.4-0.7,0.7-1,0.8c-0.4,0.1-0.8,0.2-1.3,0.2c-0.4,0-0.8-0.1-1.2-0.2
		c-0.4-0.1-0.7-0.3-0.9-0.6c-0.2-0.2-0.4-0.5-0.5-0.8c-0.1-0.3-0.2-0.6-0.3-0.9c-0.1-0.3-0.1-0.7-0.1-1c0-0.3,0-0.7,0-1
		c0-0.3,0-0.7,0-1c0-0.3,0.1-0.7,0.1-1c0.1-0.3,0.2-0.6,0.3-0.9c0.1-0.3,0.3-0.5,0.5-0.8c0.2-0.2,0.5-0.4,0.9-0.6
		c0.4-0.1,0.8-0.2,1.2-0.2c0.5,0,0.9,0.1,1.3,0.2s0.7,0.4,1,0.8v-4.4h1.8v12.4H392.9z M392.8,115.8c0-0.4,0-0.8-0.1-1.1
		c0-0.4-0.1-0.7-0.3-0.9c-0.1-0.3-0.3-0.5-0.6-0.6c-0.2-0.2-0.6-0.2-1-0.2c-0.4,0-0.7,0.1-1,0.2c-0.2,0.2-0.4,0.4-0.6,0.6
		c-0.1,0.3-0.2,0.6-0.3,0.9c0,0.4-0.1,0.7-0.1,1.1c0,0.4,0,0.8,0.1,1.1c0,0.4,0.1,0.7,0.3,0.9c0.1,0.3,0.3,0.5,0.6,0.6
		c0.2,0.2,0.6,0.2,1,0.2c0.4,0,0.7-0.1,1-0.2c0.2-0.2,0.4-0.4,0.6-0.6c0.1-0.3,0.2-0.6,0.3-0.9C392.8,116.6,392.8,116.2,392.8,115.8
		z"/>
	<path fill="#040000" d="M397.9,120.2v-2.1h2.1v2.1H397.9z"/>
</g>
</svg>
