<?xml version="1.0" encoding="utf-8"?>
<!-- Generator: Adobe Illustrator 18.0.0, SVG Export Plug-In . SVG Version: 6.00 Build 0)  -->
<!DOCTYPE svg PUBLIC "-//W3C//DTD SVG 1.1//EN" "http://www.w3.org/Graphics/SVG/1.1/DTD/svg11.dtd">
<svg version="1.1" id="レイヤー_1" xmlns="http://www.w3.org/2000/svg" xmlns:xlink="http://www.w3.org/1999/xlink" x="0px"
	 y="0px" viewBox="0 181.3 891.9 197.4" enable-background="new 0 181.3 891.9 197.4" xml:space="preserve">
<g>
	<polygon fill="#221815" points="0,375.1 0,181.3 42.5,181.3 42.5,254.4 43.1,254.4 110,181.3 165.6,181.3 91.9,258.9 171.8,375.1 
		122.2,375.1 63.6,288.3 42.5,310.9 42.5,375.1 	"/>
	<polygon fill="#221815" points="698.1,181.3 743.6,181.3 795,295.2 795.6,295.2 846.4,181.3 891.9,181.3 891.9,375.1 849.4,375.1 
		849.4,258.6 848.8,258.6 812.5,349 778,349 741.2,258.3 740.6,258.3 740.6,375.1 698.1,375.1 	"/>
	<path fill="#221815" d="M264.3,290.4V181.3h-42.5v109.1c0,48.8,39.5,88.3,88.3,88.3s88.3-39.5,88.3-88.3V181.3h-42.5v109.1v0.3
		c0,25.3-20.5,45.8-45.8,45.8S264.3,316,264.3,290.4"/>
	<path fill="#221815" d="M503,290.4V181.3h-42.5v109.1c0,48.8,39.5,88.3,88.3,88.3s88.3-39.5,88.3-88.3V181.3h-42.5v109.1v0.3
		c0,25.3-20.5,45.8-45.8,45.8S503,316,503,290.4"/>
</g>
</svg>
